<svg width="344" height="201" viewBox="0 0 344 201" fill="none" xmlns="http://www.w3.org/2000/svg">
<rect width="344" height="201" fill="#202024"/>
<path fill-rule="evenodd" clip-rule="evenodd" d="M171.824 45.2037C161.878 45.2037 152.338 49.0832 145.303 55.9912C138.268 62.8995 134.314 72.2706 134.314 82.0434V118.218C134.313 118.307 134.33 118.395 134.364 118.477C134.398 118.558 134.448 118.632 134.51 118.694C134.573 118.755 134.647 118.804 134.729 118.836C134.81 118.868 134.897 118.885 134.984 118.883L135.019 118.883L171.824 118.883C176.749 118.883 181.625 117.931 186.176 116.08C190.726 114.229 194.861 111.516 198.344 108.096C201.828 104.675 204.591 100.614 206.477 96.1437C208.363 91.6736 209.333 86.8823 209.333 82.0434C209.333 77.2045 208.363 72.4132 206.477 67.9431C204.591 63.473 201.828 59.4118 198.344 55.9912C194.861 52.5707 190.726 49.8577 186.176 48.007C181.625 46.1562 176.749 45.2037 171.824 45.2037ZM171.824 124.087H135.034C134.242 124.094 133.456 123.948 132.723 123.655C131.983 123.36 131.311 122.922 130.747 122.368C130.184 121.814 129.739 121.156 129.439 120.431C129.141 119.713 128.992 118.944 129 118.169V82.0434C129 70.8951 133.51 60.202 141.54 52.3168C149.571 44.4313 160.464 40 171.824 40C177.449 40 183.018 41.0879 188.214 43.2013C193.41 45.3148 198.131 48.4124 202.107 52.3168C206.083 56.2212 209.237 60.856 211.389 65.9565C213.54 71.0569 214.647 76.5232 214.647 82.0434C214.647 87.5636 213.54 93.03 211.389 98.1304C209.237 103.231 206.083 107.866 202.107 111.77C198.131 115.674 193.41 118.772 188.214 120.885C183.018 122.999 177.449 124.087 171.824 124.087Z" fill="#FBA94C"/>
<path fill-rule="evenodd" clip-rule="evenodd" d="M155.196 76.8988C155.196 75.4619 156.386 74.297 157.853 74.297H184.049C185.516 74.297 186.706 75.4619 186.706 76.8988C186.706 78.3358 185.516 79.5007 184.049 79.5007H157.853C156.386 79.5007 155.196 78.3358 155.196 76.8988Z" fill="white"/>
<path fill-rule="evenodd" clip-rule="evenodd" d="M155.196 90.6177C155.196 89.1807 156.386 88.0158 157.853 88.0158H184.049C185.516 88.0158 186.706 89.1807 186.706 90.6177C186.706 92.0546 185.516 93.2195 184.049 93.2195H157.853C156.386 93.2195 155.196 92.0546 155.196 90.6177Z" fill="white"/>
<path d="M96.5326 156.038V161.179H79.8334V156.038H96.5326ZM81.789 143.008V175H75.1972V143.008H81.789ZM101.235 143.008V175H94.6649V143.008H101.235ZM118.417 175.439C116.571 175.439 114.916 175.146 113.451 174.561C111.986 173.96 110.741 173.132 109.715 172.078C108.705 171.023 107.928 169.8 107.386 168.408C106.844 167.002 106.573 165.508 106.573 163.926V163.047C106.573 161.245 106.83 159.597 107.342 158.103C107.855 156.609 108.587 155.312 109.54 154.214C110.506 153.115 111.678 152.273 113.055 151.687C114.432 151.086 115.985 150.786 117.713 150.786C119.398 150.786 120.892 151.064 122.196 151.621C123.5 152.178 124.591 152.969 125.47 153.994C126.363 155.02 127.037 156.25 127.491 157.686C127.945 159.106 128.172 160.688 128.172 162.432V165.068H109.276V160.85H121.954V160.366C121.954 159.487 121.793 158.704 121.471 158.015C121.163 157.312 120.694 156.755 120.064 156.345C119.435 155.935 118.629 155.73 117.647 155.73C116.812 155.73 116.095 155.913 115.494 156.279C114.894 156.646 114.403 157.158 114.022 157.817C113.656 158.477 113.377 159.253 113.187 160.146C113.011 161.025 112.923 161.992 112.923 163.047V163.926C112.923 164.878 113.055 165.757 113.319 166.562C113.597 167.368 113.985 168.064 114.483 168.65C114.996 169.236 115.611 169.69 116.329 170.012C117.062 170.334 117.889 170.496 118.812 170.496C119.955 170.496 121.017 170.276 121.998 169.836C122.994 169.382 123.851 168.701 124.569 167.793L127.645 171.133C127.147 171.851 126.466 172.539 125.602 173.198C124.752 173.857 123.727 174.399 122.525 174.824C121.324 175.234 119.955 175.439 118.417 175.439ZM139.356 141.25V175H133.005V141.25H139.356ZM151.813 155.796V184.141H145.485V151.226H151.352L151.813 155.796ZM166.864 162.849V163.311C166.864 165.039 166.659 166.643 166.249 168.123C165.854 169.602 165.268 170.891 164.491 171.99C163.715 173.074 162.748 173.923 161.591 174.539C160.448 175.139 159.13 175.439 157.636 175.439C156.186 175.439 154.926 175.146 153.857 174.561C152.787 173.975 151.886 173.154 151.154 172.1C150.436 171.03 149.858 169.792 149.418 168.386C148.979 166.98 148.642 165.471 148.407 163.86V162.651C148.642 160.923 148.979 159.341 149.418 157.905C149.858 156.455 150.436 155.203 151.154 154.148C151.886 153.079 152.78 152.251 153.835 151.665C154.904 151.079 156.156 150.786 157.592 150.786C159.101 150.786 160.426 151.072 161.569 151.643C162.726 152.214 163.693 153.035 164.469 154.104C165.26 155.173 165.854 156.448 166.249 157.927C166.659 159.407 166.864 161.047 166.864 162.849ZM160.514 163.311V162.849C160.514 161.838 160.426 160.908 160.251 160.059C160.09 159.194 159.826 158.44 159.46 157.795C159.108 157.151 158.639 156.653 158.053 156.301C157.482 155.935 156.786 155.752 155.966 155.752C155.102 155.752 154.362 155.891 153.747 156.169C153.146 156.448 152.655 156.851 152.275 157.378C151.894 157.905 151.608 158.535 151.418 159.268C151.227 160 151.11 160.828 151.066 161.75V164.805C151.139 165.889 151.344 166.863 151.681 167.727C152.018 168.577 152.538 169.25 153.241 169.749C153.945 170.247 154.867 170.496 156.01 170.496C156.845 170.496 157.548 170.312 158.119 169.946C158.691 169.565 159.152 169.045 159.504 168.386C159.87 167.727 160.126 166.965 160.273 166.101C160.434 165.237 160.514 164.307 160.514 163.311Z" fill="white"/>
<path d="M181.915 175H174.95L174.993 169.858H181.915C183.643 169.858 185.101 169.47 186.287 168.694C187.474 167.903 188.367 166.753 188.968 165.244C189.583 163.735 189.891 161.912 189.891 159.773V158.213C189.891 156.572 189.715 155.129 189.364 153.884C189.027 152.639 188.521 151.592 187.847 150.742C187.174 149.893 186.346 149.255 185.365 148.831C184.383 148.391 183.255 148.171 181.981 148.171H174.818V143.008H181.981C184.119 143.008 186.075 143.374 187.847 144.106C189.635 144.824 191.18 145.857 192.484 147.205C193.787 148.552 194.791 150.164 195.494 152.039C196.212 153.899 196.571 155.972 196.571 158.257V159.773C196.571 162.043 196.212 164.116 195.494 165.991C194.791 167.866 193.787 169.478 192.484 170.825C191.195 172.158 189.649 173.191 187.847 173.923C186.06 174.641 184.083 175 181.915 175ZM178.685 143.008V175H172.093V143.008H178.685ZM212.808 175.439C210.962 175.439 209.307 175.146 207.842 174.561C206.377 173.96 205.132 173.132 204.106 172.078C203.096 171.023 202.319 169.8 201.777 168.408C201.235 167.002 200.964 165.508 200.964 163.926V163.047C200.964 161.245 201.221 159.597 201.733 158.103C202.246 156.609 202.978 155.312 203.931 154.214C204.897 153.115 206.069 152.273 207.446 151.687C208.823 151.086 210.376 150.786 212.104 150.786C213.789 150.786 215.283 151.064 216.587 151.621C217.891 152.178 218.982 152.969 219.861 153.994C220.754 155.02 221.428 156.25 221.882 157.686C222.336 159.106 222.563 160.688 222.563 162.432V165.068H203.667V160.85H216.345V160.366C216.345 159.487 216.184 158.704 215.862 158.015C215.554 157.312 215.085 156.755 214.455 156.345C213.826 155.935 213.02 155.73 212.038 155.73C211.204 155.73 210.486 155.913 209.885 156.279C209.285 156.646 208.794 157.158 208.413 157.817C208.047 158.477 207.768 159.253 207.578 160.146C207.402 161.025 207.314 161.992 207.314 163.047V163.926C207.314 164.878 207.446 165.757 207.71 166.562C207.988 167.368 208.376 168.064 208.874 168.65C209.387 169.236 210.002 169.69 210.72 170.012C211.453 170.334 212.28 170.496 213.203 170.496C214.346 170.496 215.408 170.276 216.389 169.836C217.385 169.382 218.242 168.701 218.96 167.793L222.036 171.133C221.538 171.851 220.857 172.539 219.993 173.198C219.143 173.857 218.118 174.399 216.916 174.824C215.715 175.234 214.346 175.439 212.808 175.439ZM239.921 168.43C239.921 167.976 239.789 167.566 239.525 167.2C239.262 166.833 238.771 166.497 238.053 166.189C237.35 165.867 236.332 165.574 234.999 165.31C233.798 165.046 232.677 164.717 231.637 164.321C230.612 163.911 229.718 163.42 228.957 162.849C228.209 162.278 227.624 161.604 227.199 160.828C226.774 160.037 226.562 159.136 226.562 158.125C226.562 157.129 226.774 156.191 227.199 155.312C227.638 154.434 228.261 153.657 229.066 152.983C229.887 152.295 230.883 151.76 232.055 151.379C233.241 150.984 234.574 150.786 236.054 150.786C238.119 150.786 239.892 151.116 241.371 151.775C242.865 152.434 244.008 153.342 244.799 154.5C245.604 155.642 246.007 156.946 246.007 158.411H239.679C239.679 157.795 239.547 157.246 239.284 156.763C239.035 156.265 238.639 155.876 238.097 155.598C237.57 155.305 236.881 155.159 236.032 155.159C235.329 155.159 234.721 155.283 234.208 155.532C233.695 155.767 233.3 156.089 233.021 156.499C232.758 156.895 232.626 157.334 232.626 157.817C232.626 158.184 232.699 158.513 232.846 158.806C233.007 159.084 233.263 159.341 233.615 159.575C233.966 159.81 234.42 160.029 234.977 160.234C235.548 160.425 236.251 160.601 237.086 160.762C238.8 161.113 240.331 161.575 241.679 162.146C243.026 162.703 244.096 163.464 244.887 164.431C245.678 165.383 246.073 166.636 246.073 168.188C246.073 169.243 245.839 170.21 245.37 171.089C244.901 171.968 244.228 172.737 243.349 173.396C242.47 174.041 241.415 174.546 240.185 174.912C238.969 175.264 237.599 175.439 236.076 175.439C233.864 175.439 231.989 175.044 230.451 174.253C228.927 173.462 227.77 172.458 226.979 171.243C226.203 170.012 225.814 168.752 225.814 167.463H231.813C231.842 168.328 232.062 169.023 232.472 169.551C232.897 170.078 233.432 170.459 234.076 170.693C234.735 170.928 235.446 171.045 236.208 171.045C237.028 171.045 237.709 170.935 238.251 170.715C238.793 170.481 239.203 170.173 239.481 169.792C239.774 169.397 239.921 168.943 239.921 168.43ZM257.41 141.228V175H251.082V141.228H257.41ZM272.396 151.226L262.068 163.003L256.531 168.606L254.224 164.036L258.619 158.455L264.793 151.226H272.396ZM265.826 175L258.795 164.014L263.167 160.19L273.121 175H265.826Z" fill="#FBA94C"/>
</svg>
