<svg width="154" height="26" viewBox="0 0 154 26" fill="none" xmlns="http://www.w3.org/2000/svg">
<path d="M41.8604 11.7295V14.2432H33.6963V11.7295H41.8604ZM34.6524 5.35938V21H31.4297V5.35938H34.6524ZM44.1592 5.35938V21H40.9473V5.35938H44.1592ZM52.5592 21.2148C51.6568 21.2148 50.8476 21.0716 50.1314 20.7852C49.4153 20.4915 48.8066 20.0869 48.3053 19.5713C47.8111 19.0557 47.4316 18.4577 47.1666 17.7773C46.9016 17.0898 46.7691 16.3594 46.7691 15.5859V15.1562C46.7691 14.2754 46.8945 13.4697 47.1451 12.7393C47.3958 12.0088 47.7538 11.375 48.2193 10.8379C48.692 10.3008 49.2649 9.889 49.9381 9.60254C50.6113 9.30892 51.3704 9.16211 52.2154 9.16211C53.039 9.16211 53.7695 9.29818 54.4068 9.57031C55.0442 9.84245 55.5777 10.2292 56.0074 10.7305C56.4443 11.2318 56.7737 11.8333 56.9957 12.5352C57.2177 13.2298 57.3287 14.0033 57.3287 14.8555V16.1445H48.0904V14.082H54.2887V13.8457C54.2887 13.416 54.2099 13.0329 54.0523 12.6963C53.902 12.3525 53.6728 12.0804 53.3648 11.8799C53.0569 11.6794 52.663 11.5791 52.1832 11.5791C51.775 11.5791 51.4241 11.6686 51.1305 11.8477C50.8368 12.0267 50.5969 12.2773 50.4107 12.5996C50.2317 12.9219 50.0956 13.3014 50.0025 13.7383C49.9166 14.168 49.8736 14.6406 49.8736 15.1562V15.5859C49.8736 16.0514 49.9381 16.4811 50.067 16.875C50.2031 17.2689 50.3928 17.609 50.6363 17.8955C50.887 18.182 51.1878 18.404 51.5387 18.5615C51.8967 18.7191 52.3014 18.7979 52.7525 18.7979C53.3111 18.7979 53.8303 18.6904 54.3102 18.4756C54.7971 18.2536 55.2161 17.9206 55.567 17.4766L57.0709 19.1094C56.8274 19.4603 56.4944 19.7969 56.0719 20.1191C55.6565 20.4414 55.1552 20.7064 54.568 20.9141C53.9807 21.1146 53.3111 21.2148 52.5592 21.2148ZM62.7961 4.5V21H59.6916V4.5H62.7961ZM68.8864 11.6113V25.4688H65.7927V9.37695H68.6609L68.8864 11.6113ZM76.2448 15.0596V15.2852C76.2448 16.1302 76.1446 16.9144 75.9441 17.6377C75.7507 18.361 75.4642 18.9912 75.0847 19.5283C74.7051 20.0583 74.2325 20.4736 73.6667 20.7744C73.1081 21.068 72.4636 21.2148 71.7331 21.2148C71.0241 21.2148 70.4083 21.0716 69.8855 20.7852C69.3627 20.4987 68.9223 20.0977 68.5642 19.582C68.2133 19.0592 67.9304 18.4541 67.7155 17.7666C67.5007 17.0791 67.336 16.3415 67.2214 15.5537V14.9629C67.336 14.1178 67.5007 13.3444 67.7155 12.6426C67.9304 11.9336 68.2133 11.3213 68.5642 10.8057C68.9223 10.2829 69.3591 9.87826 69.8747 9.5918C70.3975 9.30534 71.0098 9.16211 71.7116 9.16211C72.4493 9.16211 73.0974 9.30176 73.656 9.58105C74.2217 9.86035 74.6944 10.2614 75.0739 10.7842C75.4607 11.307 75.7507 11.93 75.9441 12.6533C76.1446 13.3766 76.2448 14.1787 76.2448 15.0596ZM73.1404 15.2852V15.0596C73.1404 14.5654 73.0974 14.1107 73.0114 13.6953C72.9327 13.2728 72.8038 12.904 72.6247 12.5889C72.4529 12.2738 72.2237 12.0303 71.9372 11.8584C71.6579 11.6794 71.3178 11.5898 70.9167 11.5898C70.4942 11.5898 70.1325 11.6579 69.8318 11.7939C69.5381 11.93 69.2982 12.127 69.112 12.3848C68.9258 12.6426 68.7862 12.9505 68.6931 13.3086C68.6 13.6667 68.5427 14.0713 68.5212 14.5225V16.0156C68.557 16.5456 68.6573 17.0218 68.822 17.4443C68.9867 17.8597 69.2409 18.1891 69.5847 18.4326C69.9284 18.6761 70.3796 18.7979 70.9382 18.7979C71.3464 18.7979 71.6902 18.7083 71.9695 18.5293C72.2487 18.3431 72.4743 18.0889 72.6462 17.7666C72.8252 17.4443 72.9506 17.0719 73.0222 16.6494C73.101 16.2269 73.1404 15.7721 73.1404 15.2852Z" fill="white"/>
<path d="M83.6028 21H80.1975L80.219 18.4863H83.6028C84.4479 18.4863 85.1604 18.2965 85.7405 17.917C86.3206 17.5303 86.7574 16.9681 87.0511 16.2305C87.3518 15.4928 87.5022 14.6012 87.5022 13.5557V12.793C87.5022 11.9909 87.4163 11.2855 87.2444 10.6768C87.0797 10.068 86.8326 9.55599 86.5032 9.14062C86.1738 8.72526 85.7692 8.41374 85.2893 8.20605C84.8095 7.99121 84.2581 7.88379 83.635 7.88379H80.1331V5.35938H83.635C84.6806 5.35938 85.6367 5.53841 86.5032 5.89648C87.3769 6.2474 88.1324 6.75228 88.7698 7.41113C89.4072 8.06999 89.8977 8.85775 90.2415 9.77441C90.5924 10.6839 90.7678 11.6973 90.7678 12.8145V13.5557C90.7678 14.6657 90.5924 15.679 90.2415 16.5957C89.8977 17.5124 89.4072 18.3001 88.7698 18.959C88.1396 19.6107 87.3841 20.1156 86.5032 20.4736C85.6295 20.8245 84.6627 21 83.6028 21ZM82.0237 5.35938V21H78.8011V5.35938H82.0237ZM98.7059 21.2148C97.8036 21.2148 96.9943 21.0716 96.2782 20.7852C95.562 20.4915 94.9533 20.0869 94.452 19.5713C93.9579 19.0557 93.5783 18.4577 93.3133 17.7773C93.0483 17.0898 92.9159 16.3594 92.9159 15.5859V15.1562C92.9159 14.2754 93.0412 13.4697 93.2918 12.7393C93.5425 12.0088 93.9006 11.375 94.3661 10.8379C94.8387 10.3008 95.4116 9.889 96.0848 9.60254C96.758 9.30892 97.5171 9.16211 98.3621 9.16211C99.1857 9.16211 99.9162 9.29818 100.554 9.57031C101.191 9.84245 101.724 10.2292 102.154 10.7305C102.591 11.2318 102.92 11.8333 103.142 12.5352C103.364 13.2298 103.475 14.0033 103.475 14.8555V16.1445H94.2371V14.082H100.435V13.8457C100.435 13.416 100.357 13.0329 100.199 12.6963C100.049 12.3525 99.8195 12.0804 99.5116 11.8799C99.2036 11.6794 98.8097 11.5791 98.3299 11.5791C97.9217 11.5791 97.5708 11.6686 97.2772 11.8477C96.9836 12.0267 96.7437 12.2773 96.5575 12.5996C96.3784 12.9219 96.2424 13.3014 96.1493 13.7383C96.0633 14.168 96.0204 14.6406 96.0204 15.1562V15.5859C96.0204 16.0514 96.0848 16.4811 96.2137 16.875C96.3498 17.2689 96.5396 17.609 96.783 17.8955C97.0337 18.182 97.3345 18.404 97.6854 18.5615C98.0435 18.7191 98.4481 18.7979 98.8993 18.7979C99.4579 18.7979 99.9771 18.6904 100.457 18.4756C100.944 18.2536 101.363 17.9206 101.714 17.4766L103.218 19.1094C102.974 19.4603 102.641 19.7969 102.219 20.1191C101.803 20.4414 101.302 20.7064 100.715 20.9141C100.127 21.1146 99.4579 21.2148 98.7059 21.2148ZM111.961 17.7881C111.961 17.5661 111.897 17.3656 111.768 17.1865C111.639 17.0075 111.399 16.8428 111.048 16.6924C110.704 16.5348 110.207 16.3916 109.555 16.2627C108.968 16.1338 108.42 15.9727 107.912 15.7793C107.41 15.5788 106.973 15.3389 106.601 15.0596C106.236 14.7803 105.949 14.4508 105.742 14.0713C105.534 13.6846 105.43 13.2441 105.43 12.75C105.43 12.263 105.534 11.8047 105.742 11.375C105.956 10.9453 106.261 10.5658 106.655 10.2363C107.056 9.89974 107.543 9.63835 108.116 9.45215C108.696 9.25879 109.347 9.16211 110.071 9.16211C111.08 9.16211 111.947 9.32324 112.67 9.64551C113.401 9.96777 113.959 10.4118 114.346 10.9775C114.74 11.5361 114.937 12.1735 114.937 12.8896H111.843C111.843 12.5889 111.779 12.3203 111.65 12.084C111.528 11.8405 111.335 11.6507 111.07 11.5146C110.812 11.3714 110.475 11.2998 110.06 11.2998C109.716 11.2998 109.419 11.3607 109.168 11.4824C108.918 11.597 108.724 11.7546 108.588 11.9551C108.459 12.1484 108.395 12.3633 108.395 12.5996C108.395 12.7786 108.431 12.9398 108.502 13.083C108.581 13.2191 108.706 13.3444 108.878 13.459C109.05 13.5736 109.272 13.681 109.544 13.7812C109.824 13.8743 110.167 13.9603 110.576 14.0391C111.413 14.2109 112.162 14.4365 112.821 14.7158C113.48 14.988 114.002 15.3604 114.389 15.833C114.776 16.2985 114.969 16.9108 114.969 17.6699C114.969 18.1855 114.855 18.6582 114.625 19.0879C114.396 19.5176 114.067 19.8936 113.637 20.2158C113.207 20.5309 112.692 20.778 112.09 20.957C111.496 21.1289 110.826 21.2148 110.081 21.2148C109 21.2148 108.083 21.0215 107.331 20.6348C106.587 20.248 106.021 19.7575 105.634 19.1631C105.255 18.5615 105.065 17.9456 105.065 17.3154H107.997C108.012 17.738 108.119 18.0781 108.32 18.3359C108.527 18.5938 108.789 18.7799 109.104 18.8945C109.426 19.0091 109.774 19.0664 110.146 19.0664C110.547 19.0664 110.88 19.0127 111.145 18.9053C111.41 18.7907 111.61 18.6403 111.746 18.4541C111.89 18.2607 111.961 18.0387 111.961 17.7881ZM120.512 4.48926V21H117.418V4.48926H120.512ZM127.838 9.37695L122.789 15.1348L120.082 17.874L118.954 15.6396L121.103 12.9111L124.121 9.37695H127.838ZM124.626 21L121.188 15.6289L123.326 13.7598L128.192 21H124.626Z" fill="#FBA94C"/>
<path fill-rule="evenodd" clip-rule="evenodd" d="M13.8994 5.20292C11.6003 5.20292 9.39501 6.09974 7.76877 7.69663C6.14246 9.29358 5.22851 11.4599 5.22851 13.719V22.0814C5.22823 22.1019 5.23209 22.1222 5.23991 22.1411C5.24774 22.16 5.25929 22.1771 5.2738 22.1913C5.28831 22.2056 5.30549 22.2167 5.32427 22.2242C5.34304 22.2317 5.36309 22.2354 5.38326 22.2352L5.39141 22.2351L13.8994 22.2351C15.0379 22.2351 16.1652 22.0149 17.2171 21.5871C18.269 21.1593 19.2248 20.5321 20.0301 19.7414C20.8353 18.9507 21.4742 18.0119 21.9101 16.9785C22.346 15.9452 22.5703 14.8376 22.5703 13.719C22.5703 12.6004 22.346 11.4928 21.9101 10.4595C21.4742 9.42616 20.8353 8.48735 20.0301 7.69663C19.2248 6.90592 18.269 6.27878 17.2171 5.85094C16.1652 5.4231 15.0379 5.20292 13.8994 5.20292ZM13.8994 23.438H5.39481C5.21173 23.4398 5.03013 23.4058 4.86058 23.3382C4.68956 23.2699 4.53432 23.1687 4.40396 23.0407C4.2736 22.9127 4.17077 22.7605 4.10144 22.593C4.0327 22.427 3.99826 22.2492 4.00007 22.0701V13.719C4.00007 11.1419 5.04262 8.67002 6.89892 6.84723C8.75528 5.02437 11.2734 4 13.8994 4C15.1997 4 16.4871 4.25148 17.6883 4.74004C18.8895 5.2286 19.9808 5.94465 20.8999 6.84723C21.8191 7.7498 22.5481 8.82121 23.0455 10.0003C23.5428 11.1793 23.7988 12.4429 23.7988 13.719C23.7988 14.9951 23.5428 16.2587 23.0455 17.4378C22.5481 18.6168 21.8191 19.6882 20.8999 20.5908C19.9808 21.4934 18.8895 22.2094 17.6883 22.698C16.4871 23.1866 15.1997 23.438 13.8994 23.438Z" fill="#FBA94C"/>
<path fill-rule="evenodd" clip-rule="evenodd" d="M10.0557 12.5298C10.0557 12.1976 10.3307 11.9283 10.6699 11.9283H16.7254C17.0646 11.9283 17.3396 12.1976 17.3396 12.5298C17.3396 12.862 17.0646 13.1313 16.7254 13.1313H10.6699C10.3307 13.1313 10.0557 12.862 10.0557 12.5298Z" fill="white"/>
<path fill-rule="evenodd" clip-rule="evenodd" d="M10.0557 15.7011C10.0557 15.3689 10.3307 15.0996 10.6699 15.0996H16.7254C17.0646 15.0996 17.3396 15.3689 17.3396 15.7011C17.3396 16.0332 17.0646 16.3025 16.7254 16.3025H10.6699C10.3307 16.3025 10.0557 16.0332 10.0557 15.7011Z" fill="white"/>
</svg>
