<svg width="163" height="87" viewBox="0 0 163 87" fill="none" xmlns="http://www.w3.org/2000/svg">
<path d="M27.4788 58.5156V62.1719H15.6038V58.5156H27.4788ZM16.9944 49.25V72H12.3069V49.25H16.9944ZM30.8225 49.25V72H26.1506V49.25H30.8225ZM43.0406 72.3125C41.7281 72.3125 40.551 72.1042 39.5094 71.6875C38.4677 71.2604 37.5823 70.6719 36.8531 69.9219C36.1344 69.1719 35.5823 68.3021 35.1969 67.3125C34.8115 66.3125 34.6188 65.25 34.6188 64.125V63.5C34.6188 62.2188 34.801 61.0469 35.1656 59.9844C35.5302 58.9219 36.051 58 36.7281 57.2188C37.4156 56.4375 38.249 55.8385 39.2281 55.4219C40.2073 54.9948 41.3115 54.7812 42.5406 54.7812C43.7385 54.7812 44.801 54.9792 45.7281 55.375C46.6552 55.7708 47.4313 56.3333 48.0563 57.0625C48.6917 57.7917 49.1708 58.6667 49.4938 59.6875C49.8167 60.6979 49.9781 61.8229 49.9781 63.0625V64.9375H36.5406V61.9375H45.5563V61.5938C45.5563 60.9688 45.4417 60.4115 45.2125 59.9219C44.9938 59.4219 44.6604 59.026 44.2125 58.7344C43.7646 58.4427 43.1917 58.2969 42.4938 58.2969C41.9 58.2969 41.3896 58.4271 40.9625 58.6875C40.5354 58.9479 40.1865 59.3125 39.9156 59.7812C39.6552 60.25 39.4573 60.8021 39.3219 61.4375C39.1969 62.0625 39.1344 62.75 39.1344 63.5V64.125C39.1344 64.8021 39.2281 65.4271 39.4156 66C39.6135 66.5729 39.8896 67.0677 40.2438 67.4844C40.6083 67.901 41.0458 68.224 41.5563 68.4531C42.0771 68.6823 42.6656 68.7969 43.3219 68.7969C44.1344 68.7969 44.8896 68.6406 45.5875 68.3281C46.2958 68.0052 46.9052 67.5208 47.4156 66.875L49.6031 69.25C49.249 69.7604 48.7646 70.25 48.15 70.7188C47.5458 71.1875 46.8167 71.5729 45.9625 71.875C45.1083 72.1667 44.1344 72.3125 43.0406 72.3125ZM57.9306 48V72H53.415V48H57.9306ZM66.7894 58.3438V78.5H62.2894V55.0938H66.4613L66.7894 58.3438ZM77.4925 63.3594V63.6875C77.4925 64.9167 77.3467 66.0573 77.055 67.1094C76.7738 68.1615 76.3571 69.0781 75.805 69.8594C75.2529 70.6302 74.5654 71.2344 73.7425 71.6719C72.93 72.099 71.9925 72.3125 70.93 72.3125C69.8988 72.3125 69.0029 72.1042 68.2425 71.6875C67.4821 71.2708 66.8415 70.6875 66.3206 69.9375C65.8102 69.1771 65.3988 68.2969 65.0863 67.2969C64.7738 66.2969 64.5342 65.224 64.3675 64.0781V63.2188C64.5342 61.9896 64.7738 60.8646 65.0863 59.8438C65.3988 58.8125 65.8102 57.9219 66.3206 57.1719C66.8415 56.4115 67.4769 55.8229 68.2269 55.4062C68.9873 54.9896 69.8779 54.7812 70.8988 54.7812C71.9717 54.7812 72.9144 54.9844 73.7269 55.3906C74.5498 55.7969 75.2373 56.3802 75.7894 57.1406C76.3519 57.901 76.7738 58.8073 77.055 59.8594C77.3467 60.9115 77.4925 62.0781 77.4925 63.3594ZM72.9769 63.6875V63.3594C72.9769 62.6406 72.9144 61.9792 72.7894 61.375C72.6748 60.7604 72.4873 60.224 72.2269 59.7656C71.9769 59.3073 71.6435 58.9531 71.2269 58.7031C70.8206 58.4427 70.3258 58.3125 69.7425 58.3125C69.1279 58.3125 68.6019 58.4115 68.1644 58.6094C67.7373 58.8073 67.3883 59.0938 67.1175 59.4688C66.8467 59.8438 66.6435 60.2917 66.5081 60.8125C66.3727 61.3333 66.2894 61.9219 66.2581 62.5781V64.75C66.3102 65.5208 66.456 66.2135 66.6956 66.8281C66.9352 67.4323 67.305 67.9115 67.805 68.2656C68.305 68.6198 68.9613 68.7969 69.7738 68.7969C70.3675 68.7969 70.8675 68.6667 71.2738 68.4062C71.68 68.1354 72.0081 67.7656 72.2581 67.2969C72.5185 66.8281 72.7008 66.2865 72.805 65.6719C72.9196 65.0573 72.9769 64.3958 72.9769 63.6875Z" fill="white"/>
<path d="M88.195 72H83.2419L83.2731 68.3438H88.195C89.4242 68.3438 90.4606 68.0677 91.3044 67.5156C92.1481 66.9531 92.7835 66.1354 93.2106 65.0625C93.6481 63.9896 93.8669 62.6927 93.8669 61.1719V60.0625C93.8669 58.8958 93.7419 57.8698 93.4919 56.9844C93.2523 56.099 92.8929 55.3542 92.4137 54.75C91.9346 54.1458 91.346 53.6927 90.6481 53.3906C89.9502 53.0781 89.1481 52.9219 88.2419 52.9219H83.1481V49.25H88.2419C89.7627 49.25 91.1533 49.5104 92.4137 50.0312C93.6846 50.5417 94.7835 51.276 95.7106 52.2344C96.6377 53.1927 97.3512 54.3385 97.8512 55.6719C98.3617 56.9948 98.6169 58.4688 98.6169 60.0938V61.1719C98.6169 62.7865 98.3617 64.2604 97.8512 65.5938C97.3512 66.9271 96.6377 68.0729 95.7106 69.0312C94.794 69.9792 93.695 70.7135 92.4137 71.2344C91.1429 71.7448 89.7367 72 88.195 72ZM85.8981 49.25V72H81.2106V49.25H85.8981ZM110.163 72.3125C108.851 72.3125 107.674 72.1042 106.632 71.6875C105.59 71.2604 104.705 70.6719 103.976 69.9219C103.257 69.1719 102.705 68.3021 102.319 67.3125C101.934 66.3125 101.741 65.25 101.741 64.125V63.5C101.741 62.2188 101.924 61.0469 102.288 59.9844C102.653 58.9219 103.174 58 103.851 57.2188C104.538 56.4375 105.371 55.8385 106.351 55.4219C107.33 54.9948 108.434 54.7812 109.663 54.7812C110.861 54.7812 111.924 54.9792 112.851 55.375C113.778 55.7708 114.554 56.3333 115.179 57.0625C115.814 57.7917 116.293 58.6667 116.616 59.6875C116.939 60.6979 117.101 61.8229 117.101 63.0625V64.9375H103.663V61.9375H112.679V61.5938C112.679 60.9688 112.564 60.4115 112.335 59.9219C112.116 59.4219 111.783 59.026 111.335 58.7344C110.887 58.4427 110.314 58.2969 109.616 58.2969C109.022 58.2969 108.512 58.4271 108.085 58.6875C107.658 58.9479 107.309 59.3125 107.038 59.7812C106.778 60.25 106.58 60.8021 106.444 61.4375C106.319 62.0625 106.257 62.75 106.257 63.5V64.125C106.257 64.8021 106.351 65.4271 106.538 66C106.736 66.5729 107.012 67.0677 107.366 67.4844C107.731 67.901 108.168 68.224 108.679 68.4531C109.2 68.6823 109.788 68.7969 110.444 68.7969C111.257 68.7969 112.012 68.6406 112.71 68.3281C113.418 68.0052 114.028 67.5208 114.538 66.875L116.726 69.25C116.371 69.7604 115.887 70.25 115.272 70.7188C114.668 71.1875 113.939 71.5729 113.085 71.875C112.231 72.1667 111.257 72.3125 110.163 72.3125ZM129.444 67.3281C129.444 67.0052 129.35 66.7135 129.162 66.4531C128.975 66.1927 128.626 65.9531 128.116 65.7344C127.616 65.5052 126.892 65.2969 125.944 65.1094C125.09 64.9219 124.293 64.6875 123.553 64.4062C122.824 64.1146 122.189 63.7656 121.647 63.3594C121.116 62.9531 120.699 62.474 120.397 61.9219C120.095 61.3594 119.944 60.7188 119.944 60C119.944 59.2917 120.095 58.625 120.397 58C120.709 57.375 121.152 56.8229 121.725 56.3438C122.308 55.8542 123.017 55.474 123.85 55.2031C124.694 54.9219 125.642 54.7812 126.694 54.7812C128.162 54.7812 129.423 55.0156 130.475 55.4844C131.537 55.9531 132.35 56.599 132.912 57.4219C133.485 58.2344 133.772 59.1615 133.772 60.2031H129.272C129.272 59.7656 129.178 59.375 128.991 59.0312C128.814 58.6771 128.532 58.401 128.147 58.2031C127.772 57.9948 127.282 57.8906 126.678 57.8906C126.178 57.8906 125.746 57.9792 125.381 58.1562C125.017 58.3229 124.735 58.5521 124.537 58.8438C124.35 59.125 124.256 59.4375 124.256 59.7812C124.256 60.0417 124.308 60.276 124.412 60.4844C124.527 60.6823 124.709 60.8646 124.959 61.0312C125.209 61.1979 125.532 61.3542 125.928 61.5C126.334 61.6354 126.834 61.7604 127.428 61.875C128.647 62.125 129.735 62.4531 130.694 62.8594C131.652 63.2552 132.412 63.7969 132.975 64.4844C133.537 65.1615 133.819 66.0521 133.819 67.1562C133.819 67.9062 133.652 68.5938 133.319 69.2188C132.985 69.8438 132.506 70.3906 131.881 70.8594C131.256 71.3177 130.506 71.6771 129.631 71.9375C128.767 72.1875 127.793 72.3125 126.709 72.3125C125.136 72.3125 123.803 72.0312 122.709 71.4688C121.626 70.9062 120.803 70.1927 120.241 69.3281C119.689 68.4531 119.412 67.5573 119.412 66.6406H123.678C123.699 67.2552 123.855 67.75 124.147 68.125C124.449 68.5 124.829 68.7708 125.287 68.9375C125.756 69.1042 126.261 69.1875 126.803 69.1875C127.386 69.1875 127.871 69.1094 128.256 68.9531C128.642 68.7865 128.933 68.5677 129.131 68.2969C129.34 68.0156 129.444 67.6927 129.444 67.3281ZM141.881 47.9844V72H137.381V47.9844H141.881ZM152.537 55.0938L145.193 63.4688L141.256 67.4531L139.615 64.2031L142.74 60.2344L147.131 55.0938H152.537ZM147.865 72L142.865 64.1875L145.974 61.4688L153.053 72H147.865Z" fill="#FBA94C"/>
<path d="M81.6894 37.5909H67.8377C67.671 37.5931 67.5054 37.5618 67.3509 37.4988C67.1964 37.4358 67.0561 37.3425 66.9382 37.2242C66.8202 37.106 66.7271 36.9652 66.6643 36.8103C66.6015 36.6553 66.5703 36.4894 66.5725 36.3221V22.4318C66.5725 18.4114 68.1652 14.5556 71.0001 11.7127C73.8351 8.86982 77.6802 7.27271 81.6894 7.27271V7.27271C83.6746 7.27271 85.6404 7.66481 87.4744 8.42662C89.3085 9.18844 90.975 10.305 92.3787 11.7127C93.7825 13.1204 94.896 14.7915 95.6557 16.6307C96.4154 18.4698 96.8064 20.4411 96.8064 22.4318V22.4318C96.8064 24.4225 96.4154 26.3937 95.6557 28.2329C94.896 30.0721 93.7825 31.7432 92.3787 33.1509C90.975 34.5585 89.3085 35.6752 87.4744 36.437C85.6404 37.1988 83.6746 37.5909 81.6894 37.5909V37.5909Z" stroke="#FBA94C" stroke-width="2" stroke-linecap="round" stroke-linejoin="round"/>
<path d="M76.4314 20.4545H86.2903" stroke="white" stroke-width="2" stroke-linecap="round" stroke-linejoin="round"/>
<path d="M76.4314 25.7273H86.2903" stroke="white" stroke-width="2" stroke-linecap="round" stroke-linejoin="round"/>
</svg>
